# xmcd
#
# Track frame offsets: 
#        150
#        20400
#        44486
#        63169
#        99873
#        132059
#        148029
#        164597
#        187754
#        210849
#
# Disc length: 2992 seconds
#
# Revision: 1
# Processed by: cddbd v1.5.2PL0 Copyright (c) Steve Scherf et al.
# Submitted via: ExactAudioCopyFreeDBPlugin 1.0
#
DISCID=7c0bae0a
DTITLE=Los Lobos - One Time One Night:  Live Recordings, Vol. 2
DYEAR=2010
DGENRE=Rock
TTITLE0=Angel Dance 
TTITLE1=Hurry Tomorrow
TTITLE2=Dong Gone Blue
TTITLE3=This Time - Waiting in Vain
TTITLE4=Papa Was a Rollin' Stone - I Can't Understand
TTITLE5=Estoy Sentado Aqui
TTITLE6=Let's Say Goodnight
TTITLE7=Hearts of Stone
TTITLE8=Three Hundred Pounds of Heavenly Joy
TTITLE9=Come On Let's Go
EXTD=
EXTT0=
EXTT1=
EXTT2=
EXTT3=
EXTT4=
EXTT5=
EXTT6=
EXTT7=
EXTT8=
EXTT9=
PLAYORDER=
